<svg width="64" height="64" viewBox="0 0 64 64" fill="none" role="img" aria-labelledby="title desc" xmlns="http://www.w3.org/2000/svg">
  <title id="title">Ícone de Bar — Copo de Chope</title>
  <desc id="desc">Copo de chope com espuma branca, corpo dourado e alça marrom-escura.</desc>

  <!-- espuma -->
  <path d="M18 18c1.6-2.2 4.7-3 6.9-1.4c2.1-3.2 7.2-3.2 9.3 0c2.7-1.9 6.4-.8 7.6 2.1c2.6-.3 4.6 1.6 4.6 3.9c0 2.4-2 4.4-4.4 4.4H18.8C16.2 27 14 24.8 14 22.2c0-1.8 1-3.4 2.6-4.2Z" fill="#FFFFFF" stroke="#5B3A29" stroke-width="2" stroke-linecap="round" stroke-linejoin="round"/>

  <!-- corpo do copo -->
  <rect x="16" y="26" width="26" height="30" rx="5" ry="5" fill="#FFD54F" stroke="#5B3A29" stroke-width="2"/>

  <!-- “cerveja” (tom dourado mais intenso) -->
  <rect x="18.5" y="32" width="21" height="22" rx="3.5" ry="3.5" fill="#FFC107" opacity="0.9"/>

  <!-- linhas internas -->
  <line x1="22" y1="34" x2="22" y2="52" stroke="#8D6E63" stroke-width="2" opacity="0.6"/>
  <line x1="27" y1="34" x2="27" y2="52" stroke="#8D6E63" stroke-width="2" opacity="0.45"/>

  <!-- alça -->
  <path d="M42 30h6a8 8 0 0 1 0 16h-6" stroke="#5B3A29" stroke-width="2" stroke-linecap="round" stroke-linejoin="round" fill="none"/>

  <!-- base -->
  <rect x="14" y="56" width="34" height="4" rx="2" fill="#5B3A29" opacity="0.35"/>
</svg>
